<?xml version="1.0" encoding="iso-8859-1"?>
<!-- Uploaded to: SVG Repo, www.svgrepo.com, Generator: SVG Repo Mixer Tools -->
<svg version="1.1" id="Layer_1" xmlns="http://www.w3.org/2000/svg" xmlns:xlink="http://www.w3.org/1999/xlink" 
	 viewBox="0 0 512 512" xml:space="preserve">
<polygon style="fill:#F490C0;" points="478.609,411.826 478.609,378.435 445.217,378.435 445.217,345.043 411.826,345.043 
	411.826,311.652 445.217,311.652 445.217,311.652 445.217,311.652 445.217,133.565 411.826,133.565 411.826,66.783 378.436,66.783 
	378.436,33.391 378.435,33.391 311.653,33.391 311.653,0 133.565,0 133.565,33.391 66.783,33.391 66.783,66.783 66.783,66.783 
	33.391,66.783 33.391,66.783 33.391,133.565 33.391,133.565 33.391,133.565 0,133.565 0,311.652 33.391,311.652 33.391,378.435 
	66.783,378.435 66.783,378.435 66.783,378.435 66.783,411.826 133.565,411.826 133.565,445.217 311.653,445.217 311.653,411.826 
	345.043,411.826 345.043,445.217 378.435,445.217 378.435,478.609 411.826,478.609 411.826,512 478.609,512 478.609,478.609 
	512,478.609 512,411.826 "/>
<polygon style="fill:#004FAC;" points="345.043,133.565 345.043,100.174 311.652,100.174 311.652,66.783 133.565,66.783 
	133.565,100.174 100.174,100.174 100.174,133.565 66.783,133.565 66.783,311.652 100.174,311.652 100.174,345.043 133.565,345.043 
	133.565,378.435 311.652,378.435 311.652,345.043 345.043,345.043 345.043,311.652 378.435,311.652 378.435,133.565 "/>
<rect x="66.783" y="33.391" width="66.783" height="33.391"/>
<rect x="133.565" width="178.087" height="33.391"/>
<rect x="133.565" y="411.826" width="178.087" height="33.391"/>
<rect x="311.652" y="33.391" width="66.783" height="33.391"/>
<rect x="378.435" y="66.783" width="33.39" height="66.783"/>
<rect x="411.826" y="133.565" width="33.391" height="178.087"/>
<rect x="378.435" y="311.652" width="33.39" height="33.391"/>
<rect x="33.391" y="66.783" width="33.391" height="66.783"/>
<rect y="133.565" width="33.391" height="178.087"/>
<rect x="33.391" y="311.652" width="33.391" height="66.783"/>
<rect x="66.783" y="378.435" width="66.783" height="33.391"/>
<rect x="311.652" y="378.435" width="33.391" height="33.391"/>
<rect x="411.826" y="345.043" width="33.391" height="33.391"/>
<rect x="345.043" y="411.826" width="33.391" height="33.391"/>
<rect x="445.217" y="378.435" width="33.391" height="33.391"/>
<rect x="378.435" y="445.217" width="33.391" height="33.391"/>
<rect x="478.609" y="411.826" width="33.391" height="66.783"/>
<rect x="411.826" y="478.609" width="66.783" height="33.391"/>
<polygon style="fill:#FFFFFF;" points="311.652,133.565 278.261,133.565 278.261,100.174 166.957,100.174 166.957,133.565 
	133.565,133.565 133.565,244.87 166.957,244.87 166.957,278.261 200.348,278.261 200.348,311.652 166.957,311.652 166.957,345.043 
	278.261,345.043 278.261,311.652 244.87,311.652 244.87,278.261 278.261,278.261 278.261,244.87 311.652,244.87 "/>
</svg>